<?xml version="1.0" encoding="UTF-8"?><svg id="Layer_1" xmlns="http://www.w3.org/2000/svg" viewBox="0 0 534.21 117.55"><defs><style>.cls-1{fill:#1c6764;}.cls-1,.cls-2{stroke-width:0px;}.cls-2{fill:#2d2d2d;}</style></defs><path class="cls-1" d="m176.23,100.93c4.81-29.35,9.52-58.03,14.38-87.7,13.03,18.21,25.42,35.55,38.51,53.84,1.64-9.94,3.1-18.67,4.51-27.41.91-5.64,1.75-11.3,2.64-16.94.39-2.48,1.13-4.18,4.09-4.23,3.79-.06,7.58-.86,11.96-1.42-4.76,29.03-9.47,57.7-14.35,87.47-12.97-17.86-25.49-35.1-38.67-53.25-1.98,11.8-3.73,22.28-5.49,32.76-.99,5.92-1.48,8.9-1.49,9.55-.02,2.62.29,4.18-.73,5.36-1.17,1.36-3.07,1-6.1.99-2.2-.01-5.36.15-9.25.99Z"/><path class="cls-2" d="m499.42,98.41c-5.67,1.09-10.98,2.12-16.78,3.23-1.7-6.2-3.46-12.17-4.93-18.23-.66-2.73-1.79-3.79-4.52-3.72-7.96.19-15.93-.07-23.89.19-1.57.05-3.63,1.26-4.55,2.63-3.61,5.36-6.74,11.1-10.34,16.48-.78,1.16-2.81,2.11-4.14,1.96-4.17-.48-8.28-1.54-13.02-2.5,18.34-29.12,36.33-57.66,54.79-86.97,9.26,29.41,18.22,57.84,27.38,86.93Zm-27.12-33.8c-1.78-7.01-3.47-13.63-5.43-21.33-4.29,7.75-7.95,14.36-11.81,21.33h17.24Z"/><path class="cls-1" d="m315.72,86.59c4.07-3.81,7.89-7.39,11.7-10.96,7.24,8.77,12.49,10.8,20.11,7.72,3.78-1.53,6.82-3.92,7.17-8.72.37-5.03-2.78-7.42-6.39-9.23-4.34-2.17-8.83-4.01-13.19-6.13-7.82-3.81-10.83-9.34-10.26-18.58.72-11.69,8.79-21.6,20.85-25.59,12.09-4,23.84-.69,30.61,8.64.33.46.54,1.02.97,1.85-3.86,3.43-7.74,6.88-11.73,10.42-4.77-6.01-10.35-8.65-17.36-6.25-4.96,1.7-7.58,4.73-7.53,8.76.05,4.76,3.28,6.84,6.76,8.49,3.38,1.6,6.79,3.16,10.28,4.47,14.2,5.33,15.15,17.57,11.02,28.43-5.02,13.2-15.52,18.52-28.02,19.66-10.31.95-18.75-3.11-25-12.97Z"/><path class="cls-1" d="m401.19,31.74h-20.24c1.93-4.72,3.5-8.91,5.37-12.94.42-.89,1.88-1.74,2.86-1.74,15.53-.08,31.06-.02,46.59.03.25,0,.49.23.99.48-.73,4.53-1.47,9.14-2.28,14.12-4.95,0-9.74.14-14.52-.05-2.83-.12-3.97.7-4.48,4-3.06,19.7-6.51,39.33-9.62,59.02-.44,2.75-1.51,3.87-3.85,4.09-3.68.35-7.36.7-11.93,1.13,3.7-22.71,7.33-45.01,11.09-68.14Z"/><path class="cls-1" d="m264.43,96.9c5.89-9.96,11.51-19.52,17.18-29.06,9.38-15.78,18.84-31.49,28.11-47.35,1.74-2.98,3.33-4.15,6.59-2.67,2.87,1.3,6.03,1.9,9.5,2.95-5.24,8.81-10.33,17.34-15.4,25.89-10.1,17.03-20.24,34.03-30.24,51.12-1.49,2.54-2.82,3.41-5.6,2.22-3.11-1.34-6.47-2.01-10.15-3.1Z"/><path class="cls-2" d="m505.39,100.27c1.25-7.69,2.39-14.72,3.54-21.74,3.06-18.65,6.22-37.28,9.11-55.96.52-3.33,1.85-4.42,4.74-4.57,3.66-.18,7.31-.68,11.42-1.09-2.19,13.48-4.32,26.58-6.45,39.67-2.15,13.16-4.26,26.33-6.52,39.46-.19,1.12-1.32,2.8-2.19,2.93-4.3.65-8.65.87-13.65,1.3Z"/><path class="cls-1" d="m278.33,67.22c-5.8-16.52-11.37-32.37-17.17-48.9,4.87-1.36,9.38-2.71,13.95-3.78.54-.13,1.77,1.21,2.06,2.09,3.58,10.91,7.08,21.84,10.47,32.82.33,1.08.09,2.73-.49,3.71-2.7,4.56-5.6,8.98-8.82,14.06Z"/><path class="cls-1" d="m0,117.55c12.28-10.94,28.95-28.25,43.5-53.01C58.23,39.46,65.23,16.17,68.77,0c1.54,6.38,3.83,14.71,7.2,24.25,7.73,21.88,16.67,37.31,19.31,41.76,7.78,13.11,21.04,32.23,42.52,51.53-5.02-1.6-12.19-3.71-20.92-5.64-26.83-5.96-47.57-5.72-51.78-5.64-3.68.07-18.93.44-38.6,4.36-10.61,2.11-19.57,4.67-26.49,6.93Z"/></svg>